<?xml version="1.0" encoding="utf-8"?>
<!-- Generator: Adobe Illustrator 22.0.0, SVG Export Plug-In . SVG Version: 6.00 Build 0)  -->
<svg version="1.1" id="Layer_1" xmlns="http://www.w3.org/2000/svg" xmlns:xlink="http://www.w3.org/1999/xlink" x="0px" y="0px"
	 viewBox="0 0 507.7 511.4" style="enable-background:new 0 0 507.7 511.4;" xml:space="preserve">
<style type="text/css">
	.st0{fill:#5287AF;}
	.st1{fill:#FFFFFF;}
</style>
<circle class="st0" cx="252" cy="256.5" r="247.3"/>
<g>
	<g>
		<path class="st1" d="M383.5,112.4c-8.1-1.7-18.5-2.8-31.1-3.3c-13.1-0.5-22.2,0-28.1,1.8c-5.8,1.7-15.2,7.1-28.6,16.5
			c-13,9.1-30.3,23.9-51.4,44.1c-21.1,20.1-40.1,40-56.5,59.1c-14.7,17.1-30.1,36-45.7,56.4c-0.1-0.1-0.1-0.2-0.2-0.3
			c-1.6,1.5-3,3.1-4.3,4.7c-0.1,0.2-0.2,0.3-0.4,0.5c-15.1,18-36,51.3-29,76.9c0.4,0.7,0.7,1.4,1.1,2.1c2.4,1.4,4.7,2.9,7,4.5
			c2.9,1.1,5.7,2.1,8.6,3.1c2.9,0.2,5.9,0.5,8.8,0.7c15.8-2.1,30.2-6.4,44-13.4c2.4-2.2,4.7-4.5,7.1-6.6c0.2-0.3,0.3-0.5,0.5-0.8
			c24.9-37.8,56.2-76.3,93-114.5c36.6-38,70.8-66.7,101.5-85.3c7.5-4.5,12.2-7.8,14.8-10.4c2.9-3,4.8-6.7,5.7-11.2
			c1.2-5.6,0.2-10.9-2.9-15.7C394.4,116.7,389.7,113.6,383.5,112.4z"/>
	</g>
	<g>
		<path class="st1" d="M342.3,303c-8.6-12.4-22.7-28.8-41.9-48.9c-19.2-20-38.1-38.2-56.3-53.8c-15.5-13.3-32.6-27.2-50.9-41.3
			c-1.1-0.3-2.1-0.9-3.1-1.9c-15.5-15.4-32.4-23.6-52.6-31.4c-0.7-0.3-1.2-0.6-1.7-0.9c-8.5-2-16.9-2.4-24.6,0
			c-1,0.5-1.9,1.1-2.9,1.8c-1.5,4-3,8.1-4.4,12.2c-0.2,1.1-0.5,2.3-0.8,3.4c-0.2,2.2-0.4,4.5-0.6,6.7c1.8,13.2,5.1,25.5,10.5,37.2
			c2.1,3.8,4.4,7.3,7.2,10.6c0.7,0.4,1.3,0.9,2,1.4c36,23.8,72.6,53.5,108.9,88.5c36.2,34.9,63.5,67.4,81.2,96.6
			c4.2,7.1,7.4,11.6,9.9,14.1c2.8,2.7,6.4,4.6,10.6,5.4c5.3,1.1,10.4,0.2,14.9-2.8c4.6-2.9,7.5-7.4,8.7-13.3
			c1.6-7.7,2.6-17.6,3.1-29.6c0.5-12.4,0-21.2-1.7-26.7C356.3,324.7,351.1,315.8,342.3,303z"/>
	</g>
</g>
</svg>
