<?xml version="1.0" encoding="utf-8"?>
<!-- Generator: Adobe Illustrator 22.0.0, SVG Export Plug-In . SVG Version: 6.00 Build 0)  -->
<svg version="1.1" id="Layer_1" xmlns="http://www.w3.org/2000/svg" xmlns:xlink="http://www.w3.org/1999/xlink" x="0px" y="0px"
	 viewBox="0 0 498.3 502.7" style="enable-background:new 0 0 498.3 502.7;" xml:space="preserve">
<style type="text/css">
	.st0{fill:#5287AF;}
	.st1{fill:#FFFFFF;}
</style>
<circle class="st0" cx="249.6" cy="253.4" r="247.3"/>
<path class="st1" d="M176.2,93.6c-52.5,0-95.1,42.6-95.1,95.1c0,52.5,42.6,95.1,95.1,95.1s95.1-42.6,95.1-95.1
	C271.3,136.2,228.7,93.6,176.2,93.6z M176.2,271c-45.4,0-82.3-36.8-82.3-82.3c0-45.4,36.8-82.3,82.3-82.3
	c45.4,0,82.3,36.8,82.3,82.3C258.5,234.1,221.7,271,176.2,271z"/>
<polygon class="st1" points="229.4,260.7 249.8,242.5 395.9,362.6 367.3,391.6 "/>
</svg>
