<?xml version="1.0" encoding="utf-8"?>
<!-- Generator: Adobe Illustrator 22.0.0, SVG Export Plug-In . SVG Version: 6.00 Build 0)  -->
<svg version="1.1" id="Layer_1" xmlns="http://www.w3.org/2000/svg" xmlns:xlink="http://www.w3.org/1999/xlink" x="0px" y="0px"
	 viewBox="0 0 504.5 503.8" style="enable-background:new 0 0 504.5 503.8;" xml:space="preserve">
<style type="text/css">
	.st0{fill:#5287AF;}
	.st1{fill:#FFFFFF;}
</style>
<circle class="st0" cx="252.8" cy="253.3" r="247.3"/>
<path class="st1" d="M308,167l-44-76.3c-5.8-10-15.2-10-21,0L199,167c-5.8,10-1.1,18.2,10.5,18.2l13.5,0l0,80.2
	c0,16.9,13.7,30.5,30.5,30.5c16.9,0,30.5-13.7,30.5-30.5l0-80.2l13.5,0C309.1,185.2,313.8,177,308,167z"/>
<path class="st1" d="M353.3,389.3H153.7c-10.1,0-18.4-8.3-18.4-18.4v-14.3c0-10.1,8.3-18.4,18.4-18.4h199.5
	c10.1,0,18.4,8.3,18.4,18.4v14.3C371.7,381,363.4,389.3,353.3,389.3z"/>
<path class="st1" d="M135.3,371.6v-95.3c0-7.3,5.9-13.2,13.2-13.2h24.7c7.3,0,13.2,5.9,13.2,13.2v95.3c0,7.3-5.9,13.2-13.2,13.2
	h-24.7C141.3,384.8,135.3,378.8,135.3,371.6z"/>
<path class="st1" d="M320.5,371.6v-95.3c0-7.3,5.9-13.2,13.2-13.2h24.7c7.3,0,13.2,5.9,13.2,13.2v95.3c0,7.3-5.9,13.2-13.2,13.2
	h-24.7C326.5,384.8,320.5,378.8,320.5,371.6z"/>
</svg>
